<svg width="100" height="100" viewBox="0 0 100 100" fill="none" xmlns="http://www.w3.org/2000/svg">
<circle cx="50" cy="50" r="50" fill="#F45656"/>
<path fill-rule="evenodd" clip-rule="evenodd" d="M29.4732 23.4428C28.4159 24.0926 26.1457 26.1315 24.4278 27.9741C21.4009 31.2218 21.317 31.4162 21.6988 34.3051C23.2764 46.256 43.2571 68.7449 58.7103 75.9624C60.9721 77.0189 64.1638 78.0665 65.8041 78.291C68.733 78.6914 68.8503 78.6376 72.4186 75.2697C76.556 71.3639 78.1137 68.7993 77.5966 66.7443C77.1968 65.1544 65.1621 56.7928 63.2731 56.7928C62.6509 56.7928 60.7876 57.5123 59.1325 58.3917C57.4775 59.2711 55.8012 59.9906 55.4078 59.9906C54.4134 59.9906 40.8017 46.6506 40.3513 45.234C40.1495 44.5995 40.7191 42.6329 41.6168 40.8645C42.5145 39.0954 43.2494 37.1959 43.2494 36.6434C43.2494 35.5049 35.9378 24.2806 34.398 23.0559C33.0146 21.9552 31.7286 22.0562 29.4732 23.4428ZM49.657 25.9288C49.657 26.9713 50.2209 27.284 52.7006 27.6172C56.977 28.1915 62.3036 30.815 65.5901 33.9649C68.8522 37.091 71.9099 43.0313 72.4853 47.3592C72.8146 49.8362 73.126 50.3971 74.1711 50.3971C75.3431 50.3971 75.4167 50.11 75.0336 47.0394C74.4377 42.2555 70.7783 35.1391 67.2426 31.8857C63.6588 28.5887 57.5447 25.6634 53.021 25.082C49.9396 24.6861 49.657 24.7571 49.657 25.9288ZM49.657 33.0273C49.657 33.9291 50.4618 34.3844 53.0921 34.9715C59.1774 36.3312 63.7479 40.8888 65.1082 46.9544C65.6997 49.5926 66.1552 50.3971 67.0593 50.3971C68.5203 50.3971 68.5562 49.1366 67.2208 44.6494C65.7906 39.8424 60.2314 34.2936 55.4155 32.8661C50.9199 31.5333 49.657 31.5691 49.657 33.0273ZM49.657 40.0842C49.657 40.892 50.2555 41.403 51.4896 41.6492C54.2141 42.1928 57.2231 45.0421 58.0766 47.8862C58.5994 49.6265 59.1928 50.3971 60.0104 50.3971C61.5117 50.3971 61.5033 48.8999 59.9854 45.6004C58.5853 42.5574 57.1564 41.1938 53.9796 39.8687C50.8597 38.5678 49.657 38.6279 49.657 40.0842Z" fill="white"/>
</svg>
